<svg id="svg" version="1.1" xmlns="http://www.w3.org/2000/svg" xmlns:xlink="http://www.w3.org/1999/xlink" width="400" height="400" viewBox="0, 0, 400,400"><g id="svgg"><path id="path0" d="M181.700 0.279 C 180.765 0.371,180.000 0.616,180.000 0.823 C 180.000 1.030,179.280 1.200,178.400 1.200 C 177.520 1.200,176.800 1.380,176.800 1.600 C 176.800 1.820,176.350 2.000,175.800 2.000 C 175.250 2.000,174.800 2.180,174.800 2.400 C 174.800 2.620,174.440 2.800,174.000 2.800 C 173.560 2.800,173.200 2.980,173.200 3.200 C 173.200 3.420,172.840 3.600,172.400 3.600 C 171.960 3.600,171.600 3.780,171.600 4.000 C 171.600 4.220,171.240 4.400,170.800 4.400 C 170.360 4.400,170.000 4.580,170.000 4.800 C 170.000 5.020,169.640 5.200,169.200 5.200 C 168.760 5.200,168.400 5.380,168.400 5.600 C 168.400 5.820,168.040 6.000,167.600 6.000 C 167.160 6.000,166.800 6.180,166.800 6.400 C 166.800 6.620,166.522 6.800,166.182 6.800 C 165.842 6.800,165.114 7.250,164.564 7.800 C 164.014 8.350,163.252 8.800,162.870 8.800 C 162.489 8.800,161.917 9.160,161.600 9.600 C 161.283 10.040,160.703 10.400,160.312 10.400 C 159.920 10.400,159.600 10.558,159.600 10.751 C 159.600 10.944,158.250 12.478,156.600 14.161 C 154.950 15.843,153.600 17.446,153.600 17.722 C 153.600 17.998,153.240 18.483,152.800 18.800 C 152.360 19.117,152.000 19.625,152.000 19.928 C 152.000 20.231,151.460 20.983,150.800 21.600 C 150.140 22.217,149.600 22.969,149.600 23.272 C 149.600 23.575,149.240 24.083,148.800 24.400 C 148.360 24.717,148.000 25.207,148.000 25.488 C 148.000 25.770,147.820 26.000,147.600 26.000 C 147.380 26.000,147.200 26.360,147.200 26.800 C 147.200 27.240,147.020 27.600,146.800 27.600 C 146.580 27.600,146.400 28.140,146.400 28.800 C 146.400 29.460,146.220 30.000,146.000 30.000 C 145.780 30.000,145.600 30.360,145.600 30.800 C 145.600 31.240,145.420 31.600,145.200 31.600 C 144.980 31.600,144.800 32.140,144.800 32.800 C 144.800 33.460,144.620 34.000,144.400 34.000 C 144.180 34.000,144.000 34.540,144.000 35.200 C 144.000 35.860,143.820 36.400,143.600 36.400 C 143.380 36.400,143.200 37.300,143.200 38.400 C 143.200 39.500,143.020 40.400,142.800 40.400 C 142.580 40.400,142.400 41.030,142.400 41.800 L 142.400 43.200 151.229 43.200 C 160.631 43.200,161.200 43.088,161.200 41.229 C 161.200 40.773,161.380 40.400,161.600 40.400 C 161.820 40.400,162.000 40.040,162.000 39.600 C 162.000 39.160,162.180 38.800,162.400 38.800 C 162.620 38.800,162.800 38.480,162.800 38.088 C 162.800 37.697,163.160 37.117,163.600 36.800 C 164.040 36.483,164.400 35.903,164.400 35.512 C 164.400 35.120,164.580 34.800,164.800 34.800 C 165.020 34.800,165.200 34.516,165.200 34.169 C 165.200 33.821,165.920 32.846,166.800 32.000 C 167.680 31.154,168.400 30.265,168.400 30.023 C 168.400 29.381,172.683 25.200,173.340 25.200 C 173.647 25.200,174.436 24.570,175.094 23.800 C 175.752 23.030,176.585 22.400,176.945 22.400 C 177.305 22.400,177.600 22.220,177.600 22.000 C 177.600 21.780,177.920 21.600,178.312 21.600 C 178.703 21.600,179.283 21.240,179.600 20.800 C 179.917 20.360,180.497 20.000,180.888 20.000 C 181.280 20.000,181.600 19.820,181.600 19.600 C 181.600 19.380,182.140 19.200,182.800 19.200 C 183.460 19.200,184.000 19.020,184.000 18.800 C 184.000 18.580,184.360 18.400,184.800 18.400 C 185.240 18.400,185.600 18.220,185.600 18.000 C 185.600 17.780,185.960 17.600,186.400 17.600 C 186.840 17.600,187.200 17.420,187.200 17.200 C 187.200 16.980,187.920 16.800,188.800 16.800 C 189.680 16.800,190.400 16.620,190.400 16.400 C 190.400 16.180,191.210 16.000,192.200 16.000 C 193.190 16.000,194.000 15.820,194.000 15.600 C 194.000 15.371,195.200 15.200,196.800 15.200 L 199.600 15.200 199.600 21.400 L 199.600 27.600 197.200 27.600 C 195.867 27.600,194.800 27.778,194.800 28.000 C 194.800 28.220,194.181 28.400,193.424 28.400 C 192.667 28.400,191.936 28.580,191.800 28.800 C 191.664 29.020,191.113 29.200,190.576 29.200 C 190.039 29.200,189.600 29.380,189.600 29.600 C 189.600 29.820,189.060 30.000,188.400 30.000 C 187.740 30.000,187.200 30.180,187.200 30.400 C 187.200 30.620,186.880 30.800,186.488 30.800 C 186.097 30.800,185.517 31.160,185.200 31.600 C 184.883 32.040,184.375 32.400,184.072 32.400 C 183.769 32.400,183.017 32.940,182.400 33.600 C 181.783 34.260,181.075 34.800,180.826 34.800 C 180.237 34.800,177.600 37.437,177.600 38.026 C 177.600 38.275,177.059 38.985,176.397 39.602 C 175.736 40.220,175.084 41.282,174.947 41.963 L 174.700 43.200 216.150 43.200 L 257.600 43.200 257.600 41.800 C 257.600 41.030,257.420 40.400,257.200 40.400 C 256.980 40.400,256.800 39.500,256.800 38.400 C 256.800 37.300,256.620 36.400,256.400 36.400 C 256.180 36.400,256.000 35.860,256.000 35.200 C 256.000 34.540,255.820 34.000,255.600 34.000 C 255.380 34.000,255.200 33.460,255.200 32.800 C 255.200 32.140,255.020 31.600,254.800 31.600 C 254.580 31.600,254.400 31.240,254.400 30.800 C 254.400 30.360,254.220 30.000,254.000 30.000 C 253.780 30.000,253.600 29.460,253.600 28.800 C 253.600 28.140,253.420 27.600,253.200 27.600 C 252.980 27.600,252.800 27.240,252.800 26.800 C 252.800 26.360,252.620 26.000,252.400 26.000 C 252.180 26.000,252.000 25.770,252.000 25.488 C 252.000 25.207,251.640 24.717,251.200 24.400 C 250.760 24.083,250.400 23.575,250.400 23.272 C 250.400 22.969,249.860 22.217,249.200 21.600 C 248.540 20.983,248.000 20.231,248.000 19.928 C 248.000 19.625,247.640 19.117,247.200 18.800 C 246.760 18.483,246.400 17.998,246.400 17.722 C 246.400 17.446,245.050 15.843,243.400 14.161 C 241.750 12.478,240.400 10.944,240.400 10.751 C 240.400 10.558,240.080 10.400,239.688 10.400 C 239.297 10.400,238.717 10.040,238.400 9.600 C 238.083 9.160,237.511 8.800,237.130 8.800 C 236.748 8.800,235.986 8.350,235.436 7.800 C 234.886 7.250,234.158 6.800,233.818 6.800 C 233.478 6.800,233.200 6.620,233.200 6.400 C 233.200 6.180,232.840 6.000,232.400 6.000 C 231.960 6.000,231.600 5.820,231.600 5.600 C 231.600 5.380,231.240 5.200,230.800 5.200 C 230.360 5.200,230.000 5.020,230.000 4.800 C 230.000 4.580,229.640 4.400,229.200 4.400 C 228.760 4.400,228.400 4.220,228.400 4.000 C 228.400 3.780,228.040 3.600,227.600 3.600 C 227.160 3.600,226.800 3.420,226.800 3.200 C 226.800 2.980,226.440 2.800,226.000 2.800 C 225.560 2.800,225.200 2.620,225.200 2.400 C 225.200 2.180,224.750 2.000,224.200 2.000 C 223.650 2.000,223.200 1.820,223.200 1.600 C 223.200 1.380,222.495 1.200,221.633 1.200 C 220.735 1.200,219.996 0.987,219.900 0.700 C 219.737 0.211,186.154 -0.160,181.700 0.279 M127.600 64.600 L 127.600 72.400 200.000 72.400 L 272.400 72.400 272.400 64.600 L 272.400 56.800 200.000 56.800 L 127.600 56.800 127.600 64.600 M141.783 85.300 C 141.677 85.575,141.638 93.270,141.695 102.400 L 141.800 119.000 142.679 119.125 C 143.516 119.244,146.234 116.761,156.445 106.548 C 157.574 105.420,161.443 101.550,165.043 97.948 C 168.644 94.347,172.357 90.646,173.295 89.724 C 175.748 87.312,176.000 86.949,176.000 85.817 L 176.000 84.800 158.987 84.800 C 145.742 84.800,141.932 84.911,141.783 85.300 M254.551 89.681 C 253.645 90.573,250.293 93.913,247.104 97.104 C 243.914 100.294,240.044 104.164,238.502 105.702 C 236.960 107.240,233.268 110.928,230.298 113.898 C 227.328 116.868,223.638 120.558,222.098 122.098 C 220.558 123.638,216.868 127.328,213.898 130.298 C 210.928 133.268,207.240 136.960,205.702 138.502 C 204.164 140.044,200.295 143.915,197.105 147.105 C 193.915 150.295,190.044 154.164,188.502 155.702 C 186.960 157.240,183.268 160.928,180.298 163.898 C 177.328 166.868,173.638 170.558,172.098 172.098 C 170.558 173.638,166.868 177.328,163.898 180.298 C 160.928 183.268,157.261 186.940,155.749 188.457 C 154.237 189.974,150.434 193.736,147.297 196.816 L 141.594 202.416 141.697 228.708 L 141.800 255.000 142.681 255.125 C 143.385 255.225,155.070 243.742,200.981 197.834 L 258.400 140.418 258.400 114.209 L 258.400 88.000 257.300 88.029 C 256.577 88.049,255.635 88.615,254.551 89.681 M28.400 195.000 L 28.400 255.200 30.000 255.200 L 31.600 255.200 31.600 195.000 L 31.600 134.800 30.000 134.800 L 28.400 134.800 28.400 195.000 M36.400 195.000 L 36.400 255.200 39.800 255.200 L 43.200 255.200 43.200 195.000 L 43.200 134.800 39.800 134.800 L 36.400 134.800 36.400 195.000 M48.800 195.000 L 48.800 255.200 75.720 255.200 C 91.299 255.200,102.800 255.047,103.020 254.837 C 103.229 254.637,104.300 254.377,105.400 254.258 C 108.616 253.912,110.392 253.537,110.627 253.156 C 110.748 252.960,111.366 252.800,112.000 252.800 C 112.634 252.800,113.264 252.620,113.400 252.400 C 113.536 252.180,113.997 252.000,114.424 252.000 C 114.851 252.000,115.200 251.820,115.200 251.600 C 115.200 251.380,115.524 251.200,115.920 251.200 C 116.814 251.200,118.793 250.306,118.797 249.900 C 118.799 249.735,119.070 249.600,119.400 249.600 C 119.730 249.600,120.000 249.420,120.000 249.200 C 120.000 248.980,120.320 248.800,120.712 248.800 C 121.103 248.800,121.683 248.440,122.000 248.000 C 122.317 247.560,122.722 247.200,122.899 247.200 C 123.336 247.200,126.800 243.710,126.800 243.270 C 126.800 243.077,127.295 242.392,127.900 241.749 C 129.226 240.338,130.800 237.415,130.800 236.362 C 130.800 235.943,130.980 235.600,131.200 235.600 C 131.420 235.600,131.600 235.060,131.600 234.400 C 131.600 233.740,131.780 233.200,132.000 233.200 C 132.222 233.200,132.400 232.133,132.400 230.800 C 132.400 229.467,132.578 228.400,132.800 228.400 C 133.045 228.400,133.200 226.467,133.200 223.400 C 133.200 220.333,133.045 218.400,132.800 218.400 C 132.578 218.400,132.400 217.333,132.400 216.000 C 132.400 214.667,132.222 213.600,132.000 213.600 C 131.780 213.600,131.600 213.060,131.600 212.400 C 131.600 211.740,131.420 211.200,131.200 211.200 C 130.980 211.200,130.800 210.750,130.800 210.200 C 130.800 209.650,130.620 209.200,130.400 209.200 C 130.180 209.200,130.000 208.840,130.000 208.400 C 130.000 207.960,129.850 207.600,129.668 207.600 C 129.485 207.600,129.081 207.105,128.770 206.500 C 128.460 205.895,127.889 205.109,127.503 204.753 C 127.116 204.397,126.800 203.888,126.800 203.622 C 126.800 202.898,122.108 198.582,120.288 197.632 C 119.689 197.320,119.200 196.915,119.200 196.732 C 119.200 196.550,118.840 196.400,118.400 196.400 C 117.960 196.400,117.600 196.220,117.600 196.000 C 117.600 195.780,117.240 195.600,116.800 195.600 C 116.360 195.600,116.000 195.420,116.000 195.200 C 116.000 194.980,115.676 194.800,115.280 194.800 C 114.884 194.800,114.389 194.641,114.180 194.447 C 113.613 193.919,109.243 192.469,107.307 192.165 C 105.691 191.912,105.279 191.200,106.748 191.200 C 107.134 191.200,108.195 190.840,109.106 190.400 C 110.016 189.960,111.040 189.600,111.381 189.600 C 111.721 189.600,112.000 189.420,112.000 189.200 C 112.000 188.980,112.360 188.800,112.800 188.800 C 113.240 188.800,113.600 188.620,113.600 188.400 C 113.600 188.180,113.960 188.000,114.400 188.000 C 114.840 188.000,115.200 187.832,115.200 187.627 C 115.200 187.422,115.566 187.138,116.013 186.996 C 116.460 186.854,117.262 186.302,117.795 185.769 C 118.328 185.236,118.907 184.794,119.082 184.787 C 119.608 184.766,121.342 183.092,122.384 181.600 C 122.922 180.830,123.480 180.110,123.625 180.000 C 124.088 179.648,125.200 177.262,125.200 176.620 C 125.200 176.279,125.380 176.000,125.600 176.000 C 125.820 176.000,126.000 175.550,126.000 175.000 C 126.000 174.450,126.180 174.000,126.400 174.000 C 126.620 174.000,126.800 173.280,126.800 172.400 C 126.800 171.520,126.980 170.800,127.200 170.800 C 127.449 170.800,127.600 168.467,127.600 164.600 C 127.600 160.733,127.449 158.400,127.200 158.400 C 126.980 158.400,126.800 157.678,126.800 156.795 C 126.800 155.912,126.641 154.877,126.447 154.495 C 125.784 153.192,125.263 151.802,125.023 150.700 C 124.892 150.095,124.608 149.600,124.392 149.600 C 124.177 149.600,124.000 149.364,124.000 149.075 C 124.000 148.787,123.685 148.202,123.300 147.775 C 122.915 147.348,122.126 146.364,121.546 145.587 C 120.966 144.810,119.661 143.649,118.646 143.007 C 117.631 142.366,116.800 141.696,116.800 141.520 C 116.800 141.344,116.440 141.200,116.000 141.200 C 115.560 141.200,115.200 141.020,115.200 140.800 C 115.200 140.580,114.840 140.400,114.400 140.400 C 113.960 140.400,113.600 140.220,113.600 140.000 C 113.600 139.780,113.240 139.600,112.800 139.600 C 112.360 139.600,112.000 139.420,112.000 139.200 C 112.000 138.980,111.640 138.800,111.200 138.800 C 110.760 138.800,110.400 138.620,110.400 138.400 C 110.400 138.180,109.961 138.000,109.424 138.000 C 108.887 138.000,108.336 137.820,108.200 137.600 C 108.064 137.380,107.524 137.200,107.000 137.200 C 106.476 137.200,105.936 137.020,105.800 136.800 C 105.664 136.580,104.944 136.400,104.200 136.400 C 103.456 136.400,102.736 136.220,102.600 136.000 C 102.464 135.780,101.294 135.600,100.000 135.600 C 98.706 135.600,97.536 135.420,97.400 135.200 C 97.240 134.940,88.663 134.800,72.976 134.800 L 48.800 134.800 48.800 195.000 M270.800 195.000 L 270.800 255.200 277.800 255.200 L 284.800 255.200 284.800 217.576 C 284.800 192.596,284.934 180.036,285.200 180.200 C 285.420 180.336,285.600 181.067,285.600 181.824 C 285.600 182.581,285.780 183.200,286.000 183.200 C 286.220 183.200,286.400 183.740,286.400 184.400 C 286.400 185.060,286.580 185.600,286.800 185.600 C 287.020 185.600,287.200 186.140,287.200 186.800 C 287.200 187.460,287.380 188.000,287.600 188.000 C 287.820 188.000,288.000 188.630,288.000 189.400 C 288.000 190.170,288.180 190.800,288.400 190.800 C 288.620 190.800,288.800 191.340,288.800 192.000 C 288.800 192.660,288.980 193.200,289.200 193.200 C 289.420 193.200,289.600 193.740,289.600 194.400 C 289.600 195.060,289.780 195.600,290.000 195.600 C 290.220 195.600,290.400 196.219,290.400 196.976 C 290.400 197.733,290.580 198.464,290.800 198.600 C 291.020 198.736,291.200 199.366,291.200 200.000 C 291.200 200.634,291.359 201.251,291.554 201.371 C 291.748 201.492,292.026 202.382,292.171 203.349 C 292.316 204.316,292.787 206.071,293.218 207.248 C 293.648 208.425,294.000 209.796,294.000 210.294 C 294.000 210.792,294.180 211.200,294.400 211.200 C 294.620 211.200,294.800 211.740,294.800 212.400 C 294.800 213.060,294.980 213.600,295.200 213.600 C 295.420 213.600,295.600 214.219,295.600 214.976 C 295.600 215.733,295.780 216.464,296.000 216.600 C 296.220 216.736,296.400 217.276,296.400 217.800 C 296.400 218.324,296.580 218.864,296.800 219.000 C 297.020 219.136,297.200 219.777,297.200 220.424 C 297.200 221.071,297.380 221.600,297.600 221.600 C 297.820 221.600,298.000 222.129,298.000 222.776 C 298.000 223.423,298.180 224.064,298.400 224.200 C 298.620 224.336,298.800 224.977,298.800 225.624 C 298.800 226.271,298.980 226.800,299.200 226.800 C 299.420 226.800,299.600 227.340,299.600 228.000 C 299.600 228.660,299.780 229.200,300.000 229.200 C 300.220 229.200,300.400 229.729,300.400 230.376 C 300.400 231.023,300.580 231.664,300.800 231.800 C 301.020 231.936,301.200 232.667,301.200 233.424 C 301.200 234.181,301.380 234.800,301.600 234.800 C 301.820 234.800,302.000 235.340,302.000 236.000 C 302.000 236.660,302.180 237.200,302.400 237.200 C 302.620 237.200,302.800 237.740,302.800 238.400 C 302.800 239.060,302.980 239.600,303.200 239.600 C 303.420 239.600,303.600 240.230,303.600 241.000 C 303.600 241.770,303.780 242.400,304.000 242.400 C 304.220 242.400,304.400 242.940,304.400 243.600 C 304.400 244.260,304.580 244.800,304.800 244.800 C 305.020 244.800,305.200 245.340,305.200 246.000 C 305.200 246.660,305.380 247.200,305.600 247.200 C 305.820 247.200,306.000 247.819,306.000 248.576 C 306.000 249.333,306.180 250.064,306.400 250.200 C 306.620 250.336,306.800 250.977,306.800 251.624 C 306.800 252.271,306.980 252.800,307.200 252.800 C 307.420 252.800,307.600 253.340,307.600 254.000 L 307.600 255.200 318.167 255.200 C 330.142 255.200,330.000 255.222,330.000 253.357 C 330.000 252.611,330.180 252.000,330.400 252.000 C 330.620 252.000,330.800 251.471,330.800 250.824 C 330.800 250.177,330.980 249.536,331.200 249.400 C 331.420 249.264,331.600 248.533,331.600 247.776 C 331.600 247.019,331.780 246.400,332.000 246.400 C 332.220 246.400,332.400 245.860,332.400 245.200 C 332.400 244.540,332.580 244.000,332.800 244.000 C 333.020 244.000,333.200 243.381,333.200 242.624 C 333.200 241.867,333.380 241.136,333.600 241.000 C 333.820 240.864,334.000 240.324,334.000 239.800 C 334.000 239.276,334.180 238.736,334.400 238.600 C 334.620 238.464,334.800 237.733,334.800 236.976 C 334.800 236.219,334.980 235.600,335.200 235.600 C 335.420 235.600,335.600 235.060,335.600 234.400 C 335.600 233.740,335.760 233.200,335.956 233.200 C 336.152 233.200,336.422 232.570,336.556 231.800 C 336.690 231.030,336.910 229.770,337.044 229.000 C 337.178 228.230,337.448 227.600,337.644 227.600 C 337.840 227.600,338.000 227.071,338.000 226.424 C 338.000 225.777,338.180 225.136,338.400 225.000 C 338.620 224.864,338.800 224.311,338.800 223.771 C 338.800 223.231,338.958 222.477,339.151 222.095 C 339.735 220.939,340.400 218.596,340.400 217.695 C 340.400 217.229,340.572 216.741,340.782 216.611 C 340.991 216.482,341.285 215.297,341.434 213.979 C 341.583 212.661,341.862 211.486,342.053 211.367 C 342.244 211.249,342.400 210.623,342.400 209.976 C 342.400 209.329,342.580 208.800,342.800 208.800 C 343.020 208.800,343.200 208.260,343.200 207.600 C 343.200 206.940,343.380 206.400,343.600 206.400 C 343.820 206.400,344.000 205.770,344.000 205.000 C 344.000 204.230,344.180 203.600,344.400 203.600 C 344.620 203.600,344.800 203.071,344.800 202.424 C 344.800 201.777,344.980 201.136,345.200 201.000 C 345.420 200.864,345.600 200.133,345.600 199.376 C 345.600 198.619,345.780 198.000,346.000 198.000 C 346.220 198.000,346.400 197.460,346.400 196.800 C 346.400 196.140,346.580 195.600,346.800 195.600 C 347.020 195.600,347.200 194.880,347.200 194.000 C 347.200 193.120,347.380 192.400,347.600 192.400 C 347.820 192.400,348.000 191.860,348.000 191.200 C 348.000 190.540,348.180 190.000,348.400 190.000 C 348.620 190.000,348.800 189.370,348.800 188.600 C 348.800 187.830,348.980 187.200,349.200 187.200 C 349.420 187.200,349.600 186.660,349.600 186.000 C 349.600 185.340,349.760 184.800,349.956 184.800 C 350.152 184.800,350.422 184.170,350.556 183.400 C 350.690 182.630,350.910 181.370,351.044 180.600 C 351.832 176.072,352.000 182.499,352.000 217.200 L 352.000 255.200 361.000 255.200 L 370.000 255.200 370.000 195.000 L 370.000 134.800 359.800 134.800 L 349.600 134.800 349.600 136.000 C 349.600 136.660,349.420 137.200,349.200 137.200 C 348.980 137.200,348.800 137.740,348.800 138.400 C 348.800 139.060,348.620 139.600,348.400 139.600 C 348.180 139.600,348.000 140.129,348.000 140.776 C 348.000 141.423,347.820 142.064,347.600 142.200 C 347.380 142.336,347.200 142.966,347.200 143.600 C 347.200 144.234,347.020 144.864,346.800 145.000 C 346.580 145.136,346.400 145.676,346.400 146.200 C 346.400 146.724,346.220 147.264,346.000 147.400 C 345.780 147.536,345.600 148.267,345.600 149.024 C 345.600 149.781,345.420 150.400,345.200 150.400 C 344.980 150.400,344.800 150.929,344.800 151.576 C 344.800 152.223,344.620 152.864,344.400 153.000 C 344.180 153.136,344.000 153.766,344.000 154.400 C 344.000 155.034,343.820 155.664,343.600 155.800 C 343.380 155.936,343.200 156.547,343.200 157.157 C 343.200 157.767,343.076 158.390,342.925 158.541 C 342.562 158.904,341.252 163.951,341.223 165.100 C 341.210 165.595,341.020 166.000,340.800 166.000 C 340.580 166.000,340.400 166.529,340.400 167.176 C 340.400 167.823,340.220 168.464,340.000 168.600 C 339.780 168.736,339.600 169.467,339.600 170.224 C 339.600 170.981,339.420 171.600,339.200 171.600 C 338.980 171.600,338.800 172.140,338.800 172.800 C 338.800 173.460,338.620 174.000,338.400 174.000 C 338.180 174.000,338.000 174.630,338.000 175.400 C 338.000 176.170,337.820 176.800,337.600 176.800 C 337.380 176.800,337.200 177.340,337.200 178.000 C 337.200 178.660,337.020 179.200,336.800 179.200 C 336.580 179.200,336.400 179.819,336.400 180.576 C 336.400 181.333,336.220 182.064,336.000 182.200 C 335.780 182.336,335.600 182.977,335.600 183.624 C 335.600 184.271,335.420 184.800,335.200 184.800 C 334.980 184.800,334.800 185.329,334.800 185.976 C 334.800 186.623,334.620 187.264,334.400 187.400 C 334.180 187.536,334.000 188.267,334.000 189.024 C 334.000 189.781,333.820 190.400,333.600 190.400 C 333.380 190.400,333.200 190.940,333.200 191.600 C 333.200 192.260,333.020 192.800,332.800 192.800 C 332.580 192.800,332.400 193.430,332.400 194.200 C 332.400 194.970,332.220 195.600,332.000 195.600 C 331.780 195.600,331.600 196.140,331.600 196.800 C 331.600 197.460,331.420 198.000,331.200 198.000 C 330.980 198.000,330.800 198.619,330.800 199.376 C 330.800 200.133,330.620 200.864,330.400 201.000 C 330.180 201.136,330.000 201.777,330.000 202.424 C 330.000 203.071,329.820 203.600,329.600 203.600 C 329.380 203.600,329.200 203.240,329.200 202.800 C 329.200 202.360,329.020 202.000,328.800 202.000 C 328.580 202.000,328.400 201.381,328.400 200.624 C 328.400 199.867,328.220 199.136,328.000 199.000 C 327.780 198.864,327.600 198.223,327.600 197.576 C 327.600 196.929,327.420 196.400,327.200 196.400 C 326.980 196.400,326.800 195.860,326.800 195.200 C 326.800 194.540,326.620 194.000,326.400 194.000 C 326.180 194.000,326.000 193.370,326.000 192.600 C 326.000 191.830,325.841 191.200,325.646 191.200 C 325.451 191.200,325.165 190.181,325.009 188.936 C 324.854 187.690,324.580 186.385,324.402 186.036 C 324.224 185.686,323.863 184.590,323.600 183.600 C 323.337 182.610,322.960 181.487,322.761 181.105 C 322.562 180.723,322.400 179.969,322.400 179.429 C 322.400 178.889,322.220 178.336,322.000 178.200 C 321.780 178.064,321.600 177.423,321.600 176.776 C 321.600 176.129,321.420 175.600,321.200 175.600 C 320.980 175.600,320.800 175.071,320.800 174.424 C 320.800 173.777,320.620 173.136,320.400 173.000 C 320.180 172.864,320.000 172.133,320.000 171.376 C 320.000 170.619,319.820 170.000,319.600 170.000 C 319.380 170.000,319.200 169.460,319.200 168.800 C 319.200 168.140,319.020 167.600,318.800 167.600 C 318.580 167.600,318.400 166.981,318.400 166.224 C 318.400 165.467,318.220 164.736,318.000 164.600 C 317.780 164.464,317.600 163.823,317.600 163.176 C 317.600 162.529,317.420 162.000,317.200 162.000 C 316.980 162.000,316.800 161.471,316.800 160.824 C 316.800 160.177,316.620 159.536,316.400 159.400 C 316.180 159.264,316.000 158.623,316.000 157.976 C 316.000 157.329,315.820 156.800,315.600 156.800 C 315.380 156.800,315.200 156.260,315.200 155.600 C 315.200 154.940,315.020 154.400,314.800 154.400 C 314.580 154.400,314.400 153.680,314.400 152.800 C 314.400 151.920,314.220 151.200,314.000 151.200 C 313.780 151.200,313.600 150.660,313.600 150.000 C 313.600 149.340,313.420 148.800,313.200 148.800 C 312.980 148.800,312.800 148.271,312.800 147.624 C 312.800 146.977,312.620 146.336,312.400 146.200 C 312.180 146.064,312.000 145.434,312.000 144.800 C 312.000 144.166,311.820 143.536,311.600 143.400 C 311.380 143.264,311.200 142.713,311.200 142.176 C 311.200 141.639,311.020 141.200,310.800 141.200 C 310.580 141.200,310.400 140.480,310.400 139.600 C 310.400 138.720,310.220 138.000,310.000 138.000 C 309.780 138.000,309.600 137.537,309.600 136.971 C 309.600 134.752,310.045 134.800,289.629 134.800 L 270.800 134.800 270.800 195.000 M373.200 195.000 L 373.200 255.200 375.000 255.200 L 376.800 255.200 376.800 195.000 L 376.800 134.800 375.000 134.800 L 373.200 134.800 373.200 195.000 M380.800 195.000 L 380.800 255.200 382.800 255.200 L 384.800 255.200 384.800 195.000 L 384.800 134.800 382.800 134.800 L 380.800 134.800 380.800 195.000 M385.600 195.000 L 385.600 255.248 387.100 255.124 L 388.600 255.000 388.600 195.000 L 388.600 135.000 387.100 134.876 L 385.600 134.752 385.600 195.000 M80.600 146.800 C 80.736 147.020,81.197 147.200,81.624 147.200 C 82.051 147.200,82.400 147.380,82.400 147.600 C 82.400 147.820,82.682 148.000,83.026 148.000 C 83.724 148.000,88.000 152.104,88.000 152.774 C 88.000 153.008,88.180 153.200,88.400 153.200 C 88.620 153.200,88.800 153.472,88.800 153.805 C 88.800 154.138,88.980 154.768,89.200 155.205 C 89.420 155.642,89.780 156.358,90.000 156.795 C 90.220 157.232,90.400 158.222,90.400 158.995 C 90.400 159.768,90.580 160.400,90.800 160.400 C 91.046 160.400,91.200 162.400,91.200 165.600 C 91.200 168.800,91.046 170.800,90.800 170.800 C 90.578 170.800,90.400 171.867,90.400 173.200 C 90.400 174.533,90.222 175.600,90.000 175.600 C 89.780 175.600,89.600 176.050,89.600 176.600 C 89.600 177.150,89.420 177.600,89.200 177.600 C 88.980 177.600,88.800 177.960,88.800 178.400 C 88.800 178.840,88.620 179.200,88.400 179.200 C 88.180 179.200,88.000 179.482,88.000 179.826 C 88.000 181.086,82.844 185.600,81.405 185.600 C 81.072 185.600,80.800 185.780,80.800 186.000 C 80.800 186.226,79.667 186.400,78.200 186.400 C 76.733 186.400,75.600 186.574,75.600 186.800 C 75.600 187.044,73.733 187.200,70.800 187.200 L 66.000 187.200 66.000 166.800 L 66.000 146.400 73.176 146.400 C 77.529 146.400,80.450 146.557,80.600 146.800 M80.800 199.200 C 80.800 199.420,81.340 199.600,82.000 199.600 C 82.660 199.600,83.200 199.780,83.200 200.000 C 83.200 200.220,83.560 200.400,84.000 200.400 C 84.440 200.400,84.800 200.580,84.800 200.800 C 84.800 201.020,85.120 201.200,85.512 201.200 C 85.903 201.200,86.483 201.560,86.800 202.000 C 87.117 202.440,87.598 202.800,87.868 202.800 C 88.138 202.800,88.863 203.475,89.480 204.300 C 90.096 205.125,90.735 205.860,90.900 205.933 C 91.065 206.007,91.200 206.322,91.200 206.633 C 91.200 206.945,91.343 207.200,91.517 207.200 C 91.692 207.200,92.160 208.235,92.557 209.500 C 92.955 210.765,93.442 212.113,93.640 212.495 C 93.838 212.877,94.000 213.901,94.000 214.771 C 94.000 215.641,94.180 216.464,94.400 216.600 C 94.634 216.745,94.800 219.063,94.800 222.200 C 94.800 225.337,94.634 227.655,94.400 227.800 C 94.180 227.936,94.000 228.847,94.000 229.824 C 94.000 230.801,93.865 231.600,93.700 231.600 C 93.535 231.600,93.055 232.680,92.633 234.000 C 92.211 235.320,91.747 236.400,91.601 236.400 C 91.455 236.400,91.080 236.895,90.768 237.500 C 90.057 238.877,89.677 239.257,88.300 239.968 C 87.695 240.280,87.200 240.685,87.200 240.868 C 87.200 241.050,86.840 241.200,86.400 241.200 C 85.960 241.200,85.600 241.350,85.600 241.533 C 85.600 242.409,78.768 243.470,70.700 243.847 L 66.000 244.067 66.000 221.433 L 66.000 198.800 73.400 198.800 C 78.067 198.800,80.800 198.948,80.800 199.200 M250.943 236.132 C 248.051 239.029,244.942 242.120,244.033 243.000 C 243.124 243.880,239.033 247.953,234.942 252.052 C 230.851 256.151,227.168 259.841,226.757 260.252 C 226.345 260.663,222.679 264.330,218.609 268.400 C 214.539 272.470,210.825 276.184,210.357 276.652 C 205.639 281.370,194.451 292.550,193.546 293.451 C 192.911 294.083,189.269 297.750,185.453 301.600 C 181.637 305.450,177.903 309.152,177.157 309.828 C 174.953 311.822,174.000 313.142,174.000 314.203 L 174.000 315.200 196.401 315.200 L 218.802 315.200 230.219 303.700 C 236.498 297.375,241.762 292.072,241.918 291.916 C 242.073 291.760,245.845 288.029,250.300 283.624 L 258.400 275.614 258.400 253.207 L 258.400 230.800 257.300 230.832 C 256.441 230.857,255.048 232.019,250.943 236.132 M127.600 335.400 L 127.600 343.200 200.000 343.200 L 272.400 343.200 272.400 335.400 L 272.400 327.600 200.000 327.600 L 127.600 327.600 127.600 335.400 M142.400 358.200 C 142.400 358.970,142.580 359.600,142.800 359.600 C 143.020 359.600,143.200 360.500,143.200 361.600 C 143.200 362.700,143.380 363.600,143.600 363.600 C 143.820 363.600,144.000 364.140,144.000 364.800 C 144.000 365.460,144.180 366.000,144.400 366.000 C 144.620 366.000,144.800 366.540,144.800 367.200 C 144.800 367.860,144.980 368.400,145.200 368.400 C 145.420 368.400,145.600 368.760,145.600 369.200 C 145.600 369.640,145.780 370.000,146.000 370.000 C 146.220 370.000,146.400 370.540,146.400 371.200 C 146.400 371.860,146.580 372.400,146.800 372.400 C 147.020 372.400,147.200 372.760,147.200 373.200 C 147.200 373.640,147.380 374.000,147.600 374.000 C 147.820 374.000,148.000 374.230,148.000 374.512 C 148.000 374.793,148.360 375.283,148.800 375.600 C 149.240 375.917,149.600 376.425,149.600 376.728 C 149.600 377.031,150.140 377.783,150.800 378.400 C 151.460 379.017,152.000 379.769,152.000 380.072 C 152.000 380.375,152.360 380.883,152.800 381.200 C 153.240 381.517,153.600 382.002,153.600 382.278 C 153.600 382.554,154.950 384.157,156.600 385.839 C 158.250 387.522,159.600 389.056,159.600 389.249 C 159.600 389.442,159.920 389.600,160.312 389.600 C 160.703 389.600,161.283 389.960,161.600 390.400 C 161.917 390.840,162.489 391.200,162.870 391.200 C 163.252 391.200,164.014 391.650,164.564 392.200 C 165.114 392.750,165.842 393.200,166.182 393.200 C 166.522 393.200,166.800 393.380,166.800 393.600 C 166.800 393.820,167.160 394.000,167.600 394.000 C 168.040 394.000,168.400 394.180,168.400 394.400 C 168.400 394.620,168.760 394.800,169.200 394.800 C 169.640 394.800,170.000 394.980,170.000 395.200 C 170.000 395.420,170.360 395.600,170.800 395.600 C 171.240 395.600,171.600 395.780,171.600 396.000 C 171.600 396.220,171.960 396.400,172.400 396.400 C 172.840 396.400,173.200 396.580,173.200 396.800 C 173.200 397.020,173.560 397.200,174.000 397.200 C 174.440 397.200,174.800 397.380,174.800 397.600 C 174.800 397.820,175.250 398.000,175.800 398.000 C 176.350 398.000,176.800 398.180,176.800 398.400 C 176.800 398.620,177.505 398.800,178.367 398.800 C 179.264 398.800,180.004 399.013,180.100 399.300 C 180.230 399.691,184.569 399.800,200.000 399.800 C 215.431 399.800,219.770 399.691,219.900 399.300 C 219.996 399.013,220.736 398.800,221.633 398.800 C 222.495 398.800,223.200 398.620,223.200 398.400 C 223.200 398.180,223.650 398.000,224.200 398.000 C 224.750 398.000,225.200 397.820,225.200 397.600 C 225.200 397.380,225.560 397.200,226.000 397.200 C 226.440 397.200,226.800 397.020,226.800 396.800 C 226.800 396.580,227.160 396.400,227.600 396.400 C 228.040 396.400,228.400 396.220,228.400 396.000 C 228.400 395.780,228.760 395.600,229.200 395.600 C 229.640 395.600,230.000 395.420,230.000 395.200 C 230.000 394.980,230.360 394.800,230.800 394.800 C 231.240 394.800,231.600 394.620,231.600 394.400 C 231.600 394.180,231.960 394.000,232.400 394.000 C 232.840 394.000,233.200 393.820,233.200 393.600 C 233.200 393.380,233.478 393.200,233.818 393.200 C 234.158 393.200,234.886 392.750,235.436 392.200 C 235.986 391.650,236.748 391.200,237.130 391.200 C 237.511 391.200,238.083 390.840,238.400 390.400 C 238.717 389.960,239.257 389.600,239.600 389.600 C 239.943 389.600,240.488 389.212,240.812 388.738 C 241.135 388.265,242.525 386.738,243.900 385.346 C 245.275 383.954,246.400 382.581,246.400 382.296 C 246.400 382.010,246.760 381.517,247.200 381.200 C 247.640 380.883,248.000 380.375,248.000 380.072 C 248.000 379.769,248.540 379.017,249.200 378.400 C 249.860 377.783,250.400 377.031,250.400 376.728 C 250.400 376.425,250.760 375.917,251.200 375.600 C 251.640 375.283,252.000 374.793,252.000 374.512 C 252.000 374.230,252.180 374.000,252.400 374.000 C 252.620 374.000,252.800 373.640,252.800 373.200 C 252.800 372.760,252.980 372.400,253.200 372.400 C 253.420 372.400,253.600 371.860,253.600 371.200 C 253.600 370.540,253.780 370.000,254.000 370.000 C 254.220 370.000,254.400 369.640,254.400 369.200 C 254.400 368.760,254.580 368.400,254.800 368.400 C 255.020 368.400,255.200 367.860,255.200 367.200 C 255.200 366.540,255.380 366.000,255.600 366.000 C 255.820 366.000,256.000 365.460,256.000 364.800 C 256.000 364.140,256.180 363.600,256.400 363.600 C 256.620 363.600,256.800 362.700,256.800 361.600 C 256.800 360.500,256.980 359.600,257.200 359.600 C 257.420 359.600,257.600 358.970,257.600 358.200 L 257.600 356.800 248.771 356.800 C 239.369 356.800,238.800 356.912,238.800 358.771 C 238.800 359.227,238.620 359.600,238.400 359.600 C 238.180 359.600,238.000 359.960,238.000 360.400 C 238.000 360.840,237.820 361.200,237.600 361.200 C 237.380 361.200,237.200 361.520,237.200 361.912 C 237.200 362.303,236.840 362.883,236.400 363.200 C 235.960 363.517,235.600 364.097,235.600 364.488 C 235.600 364.880,235.420 365.200,235.200 365.200 C 234.980 365.200,234.800 365.484,234.800 365.831 C 234.800 366.179,234.080 367.154,233.200 368.000 C 232.320 368.846,231.600 369.735,231.600 369.977 C 231.600 370.619,227.317 374.800,226.660 374.800 C 226.353 374.800,225.564 375.430,224.906 376.200 C 224.248 376.970,223.415 377.600,223.055 377.600 C 222.695 377.600,222.400 377.780,222.400 378.000 C 222.400 378.220,222.080 378.400,221.688 378.400 C 221.297 378.400,220.717 378.760,220.400 379.200 C 220.083 379.640,219.503 380.000,219.112 380.000 C 218.720 380.000,218.400 380.180,218.400 380.400 C 218.400 380.620,217.860 380.800,217.200 380.800 C 216.540 380.800,216.000 380.980,216.000 381.200 C 216.000 381.420,215.640 381.600,215.200 381.600 C 214.760 381.600,214.400 381.780,214.400 382.000 C 214.400 382.220,214.040 382.400,213.600 382.400 C 213.160 382.400,212.800 382.580,212.800 382.800 C 212.800 383.020,212.080 383.200,211.200 383.200 C 210.320 383.200,209.600 383.380,209.600 383.600 C 209.600 383.820,208.790 384.000,207.800 384.000 C 206.810 384.000,206.000 384.180,206.000 384.400 C 206.000 384.629,204.800 384.800,203.200 384.800 L 200.400 384.800 200.400 378.600 L 200.400 372.400 202.800 372.400 C 204.133 372.400,205.200 372.222,205.200 372.000 C 205.200 371.780,205.920 371.600,206.800 371.600 C 207.680 371.600,208.400 371.420,208.400 371.200 C 208.400 370.980,208.850 370.800,209.400 370.800 C 209.950 370.800,210.400 370.620,210.400 370.400 C 210.400 370.180,210.940 370.000,211.600 370.000 C 212.260 370.000,212.800 369.820,212.800 369.600 C 212.800 369.380,213.120 369.200,213.512 369.200 C 213.903 369.200,214.483 368.840,214.800 368.400 C 215.117 367.960,215.625 367.600,215.928 367.600 C 216.231 367.600,216.983 367.060,217.600 366.400 C 218.217 365.740,218.925 365.200,219.174 365.200 C 219.763 365.200,222.400 362.563,222.400 361.974 C 222.400 361.725,222.941 361.015,223.603 360.398 C 224.264 359.780,224.916 358.718,225.053 358.037 L 225.300 356.800 183.850 356.800 L 142.400 356.800 142.400 358.200 " stroke="none" fill="#fcfcfc" fill-rule="evenodd"></path><path id="path1" d="M193.200 86.873 C 192.210 87.998,190.616 89.657,189.658 90.559 C 188.700 91.462,184.986 95.147,181.406 98.748 C 177.825 102.349,174.176 106.016,173.296 106.896 C 172.416 107.776,168.726 111.466,165.096 115.096 C 155.449 124.742,155.762 124.431,148.390 131.717 L 141.593 138.434 141.697 160.717 L 141.800 183.000 142.679 183.125 C 143.557 183.250,145.621 181.381,155.300 171.699 C 157.115 169.883,160.827 166.170,163.549 163.448 C 169.027 157.970,172.282 154.716,180.299 146.699 C 187.072 139.925,189.925 137.072,196.699 130.299 C 205.938 121.060,213.998 113.000,221.648 105.349 C 223.436 103.562,227.301 99.692,230.237 96.749 C 233.173 93.807,236.650 90.410,237.963 89.200 C 239.735 87.568,240.358 86.716,240.376 85.900 L 240.400 84.800 217.700 84.813 L 195.000 84.826 193.200 86.873 M247.100 304.004 C 240.010 311.139,238.000 313.386,238.000 314.181 L 238.000 315.200 248.207 315.200 L 258.414 315.200 258.307 305.100 L 258.200 295.000 257.200 294.923 C 256.386 294.860,254.512 296.545,247.100 304.004 " stroke="none" fill="#3c84fc" fill-rule="evenodd"></path><path id="path2" d="M232.400 183.618 C 219.310 196.803,208.363 207.818,208.074 208.095 C 207.785 208.373,196.482 219.670,182.957 233.200 C 169.432 246.730,158.184 257.980,157.962 258.200 C 157.740 258.420,153.966 262.162,149.575 266.515 L 141.593 274.431 141.696 294.715 L 141.800 315.000 148.316 315.110 L 154.832 315.220 156.811 313.110 C 157.899 311.949,159.310 310.484,159.948 309.853 C 160.585 309.222,164.256 305.556,168.105 301.705 C 175.860 293.949,175.629 294.180,184.904 284.904 C 194.180 275.629,193.949 275.860,201.705 268.105 C 210.252 259.561,209.561 260.252,218.105 251.705 C 225.865 243.943,225.622 244.187,234.957 234.852 C 238.615 231.193,242.282 227.526,243.104 226.702 C 243.927 225.878,247.706 222.145,251.503 218.407 L 258.406 211.611 258.303 185.706 L 258.200 159.800 257.200 159.723 C 256.370 159.660,252.154 163.722,232.400 183.618 " stroke="none" fill="#e43c3c" fill-rule="evenodd"></path><path id="path3" d="" stroke="none" fill="#cccc100" fill-rule="evenodd"></path><path id="path4" d="" stroke="none" fill="#cccc100" fill-rule="evenodd"></path></g></svg>